<?xml version="1.0" standalone="no"?>
<!DOCTYPE svg PUBLIC "-//W3C//DTD SVG 20010904//EN"
 "http://www.w3.org/TR/2001/REC-SVG-20010904/DTD/svg10.dtd">
<svg version="1.0" xmlns="http://www.w3.org/2000/svg"
 width="360.000000pt" height="360.000000pt" viewBox="0 0 360.000000 360.000000"
 preserveAspectRatio="xMidYMid meet">
<metadata>
Created by potrace 1.11, written by Peter Selinger 2001-2013
</metadata>
<g transform="translate(0.000000,360.000000) scale(0.100000,-0.100000)"
fill="#000000" stroke="none">
<path d="M980 2820 c-14 -4 -19 -8 -11 -9 8 -1 11 -4 8 -7 -4 -4 -13 -2 -20 5
-16 12 -113 -2 -131 -20 -6 -5 -17 -9 -25 -9 -30 0 -122 -54 -178 -105 -39
-35 -70 -75 -92 -119 -29 -57 -34 -78 -39 -160 -7 -148 31 -257 122 -350 90
-92 218 -152 526 -247 199 -61 293 -114 340 -191 23 -38 28 -151 9 -209 -42
-125 -173 -190 -391 -192 -64 -1 -111 1 -105 5 8 5 4 8 -8 8 -34 0 -118 45
-167 89 -58 52 -108 148 -123 239 l-10 67 -100 3 c-125 4 -145 -5 -145 -62 0
-52 34 -178 63 -231 90 -167 235 -275 437 -326 73 -19 103 -21 215 -16 138 6
199 19 290 61 51 23 56 24 62 8 16 -45 32 -52 128 -52 76 0 95 3 108 18 15 17
17 77 19 605 l3 587 81 -213 c45 -116 148 -389 229 -604 l148 -393 107 0 107
0 51 137 c28 76 76 208 107 293 186 508 279 749 287 738 4 -7 8 -265 8 -574 0
-531 1 -562 18 -577 28 -26 192 -24 215 1 16 17 17 91 17 866 0 721 -2 850
-14 862 -11 11 -46 14 -149 14 l-135 0 -10 -27 c-9 -26 -109 -289 -343 -903
-50 -129 -107 -279 -127 -332 -20 -54 -39 -98 -42 -98 -3 0 -120 306 -260 680
l-255 680 -136 0 c-139 0 -159 -5 -159 -42 0 -17 -2 -17 -32 2 -17 10 -36 16
-41 13 -6 -3 -7 -1 -4 4 9 15 -90 59 -148 67 -16 2 -46 9 -65 15 -40 12 -202
13 -240 1z m287 -256 c105 -50 164 -130 180 -244 7 -50 11 -55 36 -58 l27 -3
0 -171 c0 -158 -1 -170 -17 -162 -10 4 -28 8 -40 8 -11 1 -19 4 -17 7 2 3 -16
14 -39 24 -23 9 -51 21 -62 26 -23 10 -88 31 -270 89 -71 22 -149 52 -173 66
-23 14 -47 22 -52 19 -6 -4 -10 -3 -8 2 1 4 -17 28 -40 52 -88 93 -80 217 20
310 25 24 128 63 188 72 89 14 189 0 267 -37z"/>
</g>
</svg>
